<?xml version="1.0" encoding="UTF-8" standalone="no"?>
<svg xmlns="http://www.w3.org/2000/svg" width="256px" height="256px" viewBox="0 0 256 256">
  <g fill="#00D632">
    <path d="M216.464 36.465H39.536c-11.246 0-20.393 9.147-20.393 20.393v133.704c0 11.246 9.147 20.393 20.393 20.393h176.928c11.246 0 20.393-9.147 20.393-20.393V56.858c0-11.246-9.147-20.393-20.393-20.393z"/>
  </g>
  <g fill="#fff">
    <path d="M128 83.429c-18.356 0-33.286 14.93-33.286 33.286 0 18.356 14.93 33.286 33.286 33.286 18.356 0 33.286-14.93 33.286-33.286 0-18.356-14.93-33.286-33.286-33.286zm-9.143 46.571h-9.143v-25.714h9.143v25.714zm27.429 0h-9.143v-9.143h-9.143v-7.429h9.143v-9.143h9.143v25.715z"/>
    <path d="M128 158.857c-23.196 0-42-18.804-42-42s18.804-42 42-42 42 18.804 42 42-18.804 42-42 42zm0-75.429c-18.458 0-33.429 14.97-33.429 33.429 0 18.458 14.97 33.429 33.429 33.429 18.458 0 33.429-14.97 33.429-33.429 0-18.458-14.97-33.429-33.429-33.429z"/>
  </g>
</svg>
