<?xml version="1.0" encoding="UTF-8" standalone="no"?>
<svg xmlns="http://www.w3.org/2000/svg" width="256px" height="256px" viewBox="0 0 256 256">
  <g fill="#0070ba">
    <path d="M216.464 36.465H39.536c-11.246 0-20.393 9.147-20.393 20.393v133.704c0 11.246 9.147 20.393 20.393 20.393h176.928c11.246 0 20.393-9.147 20.393-20.393V56.858c0-11.246-9.147-20.393-20.393-20.393z"/>
  </g>
  <g fill="#fff">
    <path d="M101.251 147.357h-16.31a2.228 2.228 0 0 1-2.198-1.906l-8.283-52.626a1.337 1.337 0 0 1 1.319-1.543h13.856c1.071 0 1.98.78 2.145 1.838l3.819 24.213 10.682-50.377a2.23 2.23 0 0 1 2.183-1.79h13.636c1.337 0 2.223 1.296 1.808 2.571l-20.487 77.905a2.227 2.227 0 0 1-2.17 1.715z"/>
    <path d="M146.979 147.357h-13.542c-1.169 0-2.159-.849-2.34-2l-8.039-50.759a1.337 1.337 0 0 1 1.319-1.542h13.542c1.17 0 2.16.849 2.34 2.001l8.039 50.758a1.337 1.337 0 0 1-1.319 1.542z"/>
    <path d="M172.301 94.596h-13.603c-1.242 0-2.323.843-2.621 2.045l-13.054 52.504a1.337 1.337 0 0 0 1.294 1.676h6.972a2.23 2.23 0 0 0 2.197-1.906l3.638-23.061a2.225 2.225 0 0 1 2.197-1.905h4.3c10.556 0 16.637-5.105 18.22-15.193.711-4.417.029-7.88-2.032-10.302-2.271-2.672-6.292-3.858-12.508-3.858z"/>
  </g>
  <g fill="#fff">
    <path d="M173.505 95.564c-.297.038-.603.078-.918.122-2.648.371-5.932 1.193-7.914 2.279-5.63 3.079-8.515 9.423-10.053 17.47 2.013-1.046 4.466-1.553 7.457-1.553h5.366c5.766 0 10.274-1.92 13.367-5.672 1.14-1.385 2.034-3.001 2.673-4.851-2.233-4.688-7.217-7.631-9.978-7.795z"/>
  </g>
</svg>
