<?xml version="1.0" encoding="UTF-8" standalone="no"?>
<svg xmlns="http://www.w3.org/2000/svg" width="256px" height="64px" viewBox="0 0 256 64">
  <g fill="#0070ba">
    <path d="M20.373 14.306c-1.046 0-1.894.847-1.894 1.894v11.934c0 1.046.847 1.894 1.894 1.894h5.36c3.61 0 6.232-1.047 7.785-3.142 1.541-2.083 1.93-4.805 1.155-8.083-.788-3.397-2.43-5.498-4.882-6.234a11.912 11.912 0 00-3.87-.529h-5.36l-.189.266zm5.36 11.217h-1.894v-5.817h1.894c1.365 0 2.318.282 2.894.847.565.565.941 1.506.682 2.835-.259 1.33-.824 1.753-1.576 2.023-.753.271-2 .112-2.894.112h-.106zM36.49 14.306c-.341.012-.658.165-.847.423-.188.259-.259.611-.177.93l3.576 15.652h-3.753c-.611 0-1.13-.436-1.248-1.036l-.318-1.906h-4.07l-.317 1.906c-.13.6-.636 1.036-1.248 1.036h-3.753L28.901 14.4c.083-.342.33-.612.659-.73a1.261 1.261 0 011.007.059l.73.353h3.753l.73-.353c.495-.236 1.083-.13 1.46.27l-.73.306zm-4.177 9.8l-1.177-7.048-1.177 7.047h2.354zM42.484 14.306c-1.047 0-1.894.847-1.894 1.894v11.934c0 1.046.847 1.894 1.894 1.894h3.753c1.047 0 1.895-.848 1.895-1.894v-2.624h-3.612v-3.788h5.506v6.059c-.4.73-.153 1.442-.423 2.13-.519 1.233-1.66 2.011-2.93 2.023h-3.753a5.73 5.73 0 01-2.917-.776c-1.694-1.036-2.73-2.894-2.73-4.882V16.2c0-1.988 1.036-3.847 2.73-4.883a5.647 5.647 0 012.917-.776h3.753c1.988 0 3.847 1.036 4.883 2.73a5.73 5.73 0 01.776 2.917v.671h-3.753v-.318a1.867 1.867 0 00-.564-1.33 1.867 1.867 0 00-1.33-.564h-3.753L42.49 14.3l-.006.006zM53.242 14.306c-1.047 0-1.894.847-1.894 1.894v11.934c0 1.046.847 1.894 1.894 1.894h5.318c3.611 0 6.28-1.047 7.823-3.142 1.553-2.083 1.926-4.805 1.153-8.083-.783-3.397-2.42-5.498-4.883-6.234a11.82 11.82 0 00-3.87-.529h-5.318l-.223.266zm5.318 11.217h-1.894v-5.817h1.894c1.365 0 2.318.282 2.894.847.565.565.941 1.506.682 2.835-.259 1.33-.824 1.753-1.576 2.023-.753.271-2 .112-2.894.112h-.106zM69.618 14.306c-.341.012-.67.165-.847.423-.188.259-.27.611-.188.93l3.576 15.652h-3.753c-.61 0-1.13-.436-1.248-1.036l-.317-1.906h-4.071l-.318 1.906c-.13.6-.635 1.036-1.247 1.036h-3.753L62.029 14.4c.083-.342.33-.612.659-.73a1.261 1.261 0 011.007.059l.73.353h3.753l.73-.353c.494-.236 1.082-.13 1.46.27l-.73.306zm-4.177 9.8l-1.177-7.048-1.177 7.047h2.354zM80.34 13.918c-2.729 0-5.012 2.083-5.341 4.8L74.14 30.029h3.753l.776-10.105c.059-.67.624-1.177 1.295-1.177h3.212c.671 0 1.236.506 1.294 1.177l.777 10.105h3.753l-.835-11.17c-.341-2.87-2.73-4.941-5.624-4.941H80.34z"/>
    <path d="M94.921 14.27c-1.318 0-2.377 1.06-2.377 2.377v11.223c0 1.318 1.06 2.377 2.377 2.377h3.647c.835 0 1.517-.67 1.517-1.506s-.682-1.506-1.517-1.506h-2.13v-3.082h1.988c.836 0 1.518-.67 1.518-1.506s-.683-1.506-1.518-1.506h-1.988v-3.082h2.13c.835 0 1.517-.67 1.517-1.506s-.682-1.506-1.517-1.506h-3.647v-.777zM106.5 14.27c-1.317 0-2.376 1.06-2.376 2.377v11.223c0 1.318 1.059 2.377 2.376 2.377h3.647c.835 0 1.518-.67 1.518-1.506s-.683-1.506-1.518-1.506h-2.13v-9.046h2.13c.835 0 1.518-.67 1.518-1.506s-.683-1.506-1.518-1.506H106.5v-.777z"/>
    <path d="M123.823 14.27h-10.729c-.835 0-1.518.67-1.518 1.506s.683 1.506 1.518 1.506h3.753v11.459c0 .835.67 1.506 1.506 1.506.835 0 1.506-.67 1.506-1.506V17.282h3.964c.836 0 1.519-.67 1.519-1.506s-.683-1.506-1.519-1.506zM140.858 14.27H127.2c-.835 0-1.517.67-1.517 1.506s.682 1.506 1.517 1.506h5.059v11.458c0 .836.67 1.506 1.506 1.506s1.506-.67 1.506-1.506V17.282h5.588c.835 0 1.517-.67 1.517-1.506s-.682-1.506-1.517-1.506z"/>
    <path d="M149.117 13.918c-1.235 0-2.394.517-3.2 1.423l-.423.47v-.046c0-.835-.67-1.506-1.506-1.506-.835 0-1.506.67-1.506 1.506v13.753c0 .835.67 1.506 1.506 1.506.835 0 1.506-.67 1.506-1.506v-8.082l.423-.47c.35-.377.847-.6 1.365-.6h3.753c.517 0 1.012.212 1.365.6l.423.47v8.082c0 .835.671 1.506 1.507 1.506.835 0 1.506-.67 1.506-1.506V18.788c0-1.294-.683-2.47-1.789-3.118a3.626 3.626 0 00-1.894-.517h-3.036v-1.236z"/>
    <path d="M160.964 13.977c-.834 0-1.518.67-1.518 1.506v13.753c0 .835.683 1.506 1.518 1.506s1.506-.67 1.506-1.506v-4.59h3.094l2.894 5.43c.307.588.923.959 1.576.93.835 0 1.518-.67 1.518-1.506a1.52 1.52 0 00-.177-.706l-2.623-4.94a4.519 4.519 0 001.977-3.73c0-2.517-2.035-4.553-4.553-4.553h-4.694a1.482 1.482 0 00-.518-.594zm4.211 2.659a1.53 1.53 0 11.001 3.059 1.53 1.53 0 01-.001-3.059zM188.067 14.27h-10.729c-.835 0-1.517.67-1.517 1.506s.682 1.506 1.517 1.506h3.753v11.459c0 .835.67 1.506 1.506 1.506.835 0 1.506-.67 1.506-1.506V17.282h3.965c.835 0 1.517-.67 1.517-1.506s-.682-1.506-1.517-1.506h-.001z"/>
    <path d="M196.327 13.918c-1.236 0-2.395.517-3.2 1.423l-.424.47v-9.846a1.508 1.508 0 00-1.506-1.506c-.835 0-1.506.67-1.506 1.506v24.553c0 .835.671 1.506 1.506 1.506.835 0 1.506-.67 1.506-1.506v-8.082l.423-.47c.353-.377.848-.6 1.365-.6h3.753c.518 0 1.012.212 1.365.6l.424.47v8.082c0 .835.67 1.506 1.506 1.506.835 0 1.506-.67 1.506-1.506V18.788c0-1.294-.682-2.47-1.788-3.118a3.638 3.638 0 00-1.895-.517h-3.035V13.93v-.011z"/>
    <path d="M212.198 14.27c-1.318 0-2.377 1.06-2.377 2.377v11.223c0 1.318 1.059 2.377 2.377 2.377h3.647c.835 0 1.518-.67 1.518-1.506s-.683-1.506-1.518-1.506h-2.13v-3.082h1.988c.836 0 1.518-.67 1.518-1.506s-.682-1.506-1.518-1.506h-1.988v-3.082h2.13c.835 0 1.518-.67 1.518-1.506s-.683-1.506-1.518-1.506h-3.647v-.777zM221.957 14.306c-1.047 0-1.894.847-1.894 1.894v11.934c0 1.046.847 1.894 1.894 1.894h5.359c3.612 0 6.232-1.047 7.785-3.142 1.541-2.083 1.93-4.805 1.153-8.083-.782-3.397-2.43-5.498-4.882-6.234a11.888 11.888 0 00-3.87-.529h-5.36l-.185.266zm5.359 11.217h-1.894v-5.817h1.894c1.365 0 2.318.282 2.894.847.565.565.942 1.506.683 2.835-.259 1.33-.824 1.753-1.577 2.023-.753.271-2 .112-2.894.112h-.106z"/>
  </g>
</svg>
