<?xml version="1.0" encoding="UTF-8" standalone="no"?>
<svg xmlns="http://www.w3.org/2000/svg" width="256px" height="256px" viewBox="0 0 256 256">
  <g fill="#3D95CE">
    <path d="M216.464 36.465H39.536c-11.246 0-20.393 9.147-20.393 20.393v133.704c0 11.246 9.147 20.393 20.393 20.393h176.928c11.246 0 20.393-9.147 20.393-20.393V56.858c0-11.246-9.147-20.393-20.393-20.393z"/>
  </g>
  <g fill="#fff">
    <path d="M144.429 71.857c5.6 7.086 8.114 14.4 8.114 23.771 0 29.943-25.6 68.343-46.629 89.372h-32.457l-20.343-123.2h36.114l12 94.629c10.857-16.8 24.229-43.429 24.229-61.714 0-9.829-1.714-16.457-4.343-21.6l23.315-1.258z"/>
  </g>
</svg>
